# xmcd
#
# Track frame offsets: 
#        150
#        12757
#        30355
#        42308
#        57879
#        71193
#        87502
#        98757
#        111912
#        124513
#
# Disc length: 1841 seconds
#
# Revision: 0
# Processed by: cddbd v1.5.2PL0 Copyright (c) Steve Scherf et al.
# Submitted via: ExactAudioCopy v0.99pb4
#
DISCID=7c072f0a
DTITLE=Tanya Tucker - Dreamlovers
DYEAR=1980
DGENRE=Country
TTITLE0=Can I See You Tonight
TTITLE1=Love Knows We Tried
TTITLE2=I've Got Somebody
TTITLE3=Let Me Count the Ways
TTITLE4=Dream Lover
TTITLE5=Somebody (Trying To Tell You Something)
TTITLE6=All the Way
TTITLE7=Tennessee Woman
TTITLE8=Don't You Want to Be a Lover Tonight
TTITLE9=My Song
EXTD=
EXTT0=
EXTT1=
EXTT2=
EXTT3=
EXTT4=
EXTT5=
EXTT6=
EXTT7=
EXTT8=
EXTT9=
PLAYORDER=
